<svg width="201" height="36" viewBox="0 0 201 36" fill="none" xmlns="http://www.w3.org/2000/svg">
<path d="M31.2735 24.4679C31.1487 24.3442 31.1487 24.2205 31.1487 24.0969V11.9155C31.1487 11.7918 31.1487 11.6682 31.2735 11.5445C31.3984 11.4208 31.4608 11.4208 31.6481 11.4208H34.6443C35.0189 11.4208 35.2686 11.5445 35.3934 11.8537L38.6394 17.0477V11.9155C38.6394 11.7918 38.6394 11.6682 38.7642 11.5445C38.8891 11.4208 39.0139 11.4208 39.1387 11.4208H42.572C42.6968 11.4208 42.8217 11.4208 42.9465 11.5445C43.0714 11.6682 43.0714 11.7918 43.0714 11.9155V24.0969C43.0714 24.2205 43.0714 24.3442 42.9465 24.4679C42.8217 24.5915 42.6968 24.5915 42.572 24.5915H39.5757C39.326 24.5915 39.2012 24.5915 39.0763 24.4679C38.9515 24.3442 38.8891 24.2824 38.7642 24.1587L35.5182 19.3356V24.035C35.5182 24.1587 35.5182 24.2824 35.3934 24.406C35.2686 24.5297 35.1437 24.5297 35.0189 24.5297H31.5856C31.4608 24.5297 31.3359 24.5297 31.2111 24.406L31.2735 24.4679Z" fill="#107CBF"/>
<path d="M45.3186 24.4679C45.1937 24.3442 45.1937 24.2205 45.1937 24.0969V11.9155C45.1937 11.7918 45.1937 11.6682 45.3186 11.5445C45.4434 11.4208 45.5683 11.4208 45.6931 11.4208H55.431C55.5558 11.4208 55.6807 11.4208 55.8055 11.5445C55.9304 11.6682 55.9304 11.7918 55.9304 11.9155V14.5744C55.9304 14.698 55.9304 14.8217 55.8055 14.9454C55.6807 15.069 55.5558 15.069 55.431 15.069H49.7506V16.2439H55.0565C55.1813 16.2439 55.3061 16.2439 55.431 16.3676C55.5558 16.4912 55.5558 16.6149 55.5558 16.7386V19.212C55.5558 19.3356 55.5558 19.4593 55.431 19.583C55.3061 19.7066 55.1813 19.7066 55.0565 19.7066H49.7506V20.8815H55.6183C55.7431 20.8815 55.8679 20.8815 55.9928 21.0052C56.1176 21.1288 56.1176 21.2525 56.1176 21.3762V24.035C56.1176 24.1587 56.1176 24.2824 55.9928 24.406C55.8679 24.5297 55.7431 24.5297 55.6183 24.5297H45.6931C45.5683 24.5297 45.4434 24.5297 45.3186 24.406V24.4679Z" fill="#107CBF"/>
<path d="M57.9903 24.4679C57.8655 24.3442 57.8655 24.2205 57.8655 24.0969V11.9155C57.8655 11.7918 57.8655 11.6682 57.9903 11.5445C58.1152 11.4208 58.1776 11.4208 58.3649 11.4208H68.1027C68.2276 11.4208 68.3524 11.4208 68.4773 11.5445C68.6021 11.6682 68.6021 11.7918 68.6021 11.9155V14.5744C68.6021 14.698 68.6021 14.8217 68.4773 14.9454C68.3524 15.069 68.2276 15.069 68.1027 15.069H62.4223V16.2439H67.7282C67.8531 16.2439 67.9779 16.2439 68.1027 16.3676C68.2276 16.4912 68.2276 16.6149 68.2276 16.7386V19.212C68.2276 19.3356 68.2276 19.4593 68.1027 19.583C67.9779 19.7066 67.8531 19.7066 67.7282 19.7066H62.4223V20.8815H68.29C68.4149 20.8815 68.5397 20.8815 68.6645 21.0052C68.7894 21.1288 68.7894 21.2525 68.7894 21.3762V24.035C68.7894 24.1587 68.7894 24.2824 68.6645 24.406C68.5397 24.5297 68.4149 24.5297 68.29 24.5297H58.3649C58.24 24.5297 58.1152 24.5297 57.9903 24.406V24.4679Z" fill="#107CBF"/>
<path d="M70.6621 24.4679C70.5372 24.3442 70.5372 24.2205 70.5372 24.0969V11.9155C70.5372 11.7918 70.5372 11.6682 70.6621 11.5445C70.7869 11.4208 70.8493 11.4208 71.0366 11.4208H76.5298C77.7158 11.4208 78.777 11.6063 79.7757 12.0392C80.7121 12.472 81.4611 13.0285 82.0229 13.8324C82.5847 14.6362 82.8969 15.5637 82.8969 16.6149V19.3975C82.8344 21.1288 82.2102 22.4273 81.149 23.293C80.0254 24.1587 78.5273 24.5915 76.6546 24.5915H71.099C70.9742 24.5915 70.8493 24.5915 70.7245 24.4679H70.6621ZM76.5298 20.9433C76.9667 20.9433 77.3413 20.8196 77.591 20.5723C77.8407 20.325 78.0279 19.954 78.0279 19.4593V16.6767C78.0279 16.1821 77.8406 15.8111 77.5285 15.5637C77.2164 15.3164 76.8419 15.1927 76.4049 15.1927H75.2813V21.0052H76.5298V20.9433Z" fill="#107CBF"/>
<path d="M86.7671 24.2824C85.8307 23.9114 85.1441 23.4167 84.6447 22.7984C84.1453 22.18 83.8956 21.4998 83.8956 20.8196C83.8956 20.696 83.8956 20.6341 84.0205 20.5105C84.1453 20.3868 84.2077 20.3868 84.3326 20.3868H87.9531C88.1404 20.3868 88.2652 20.3868 88.39 20.4486C88.5149 20.4486 88.6397 20.5723 88.7646 20.696C89.1391 21.0052 89.5761 21.1288 90.1379 21.1288C90.6997 21.1288 90.8869 21.1288 91.1991 21.0052C91.4487 20.8815 91.5736 20.7578 91.5736 20.6341C91.5736 20.3868 91.3863 20.2631 91.0742 20.1395C90.6997 20.0158 90.0754 19.8921 89.1391 19.7685C85.8932 19.3356 84.2077 17.9753 84.2077 15.6256C84.2077 13.2759 84.4574 14.0179 84.9568 13.3995C85.4562 12.7812 86.1428 12.2247 87.0167 11.8537C87.8907 11.4827 88.8894 11.2971 90.013 11.2971C91.1366 11.2971 92.2602 11.4827 93.1341 11.9155C94.0081 12.3483 94.7571 12.843 95.1941 13.4614C95.631 14.0797 95.9431 14.6362 95.9431 15.2546C95.9431 15.3782 95.9431 15.4401 95.8183 15.5637C95.6935 15.6874 95.631 15.6874 95.5686 15.6874H91.7609C91.5736 15.6874 91.4487 15.6874 91.3239 15.6256C91.1991 15.6256 91.1366 15.5019 90.9494 15.3782C90.6997 15.1309 90.3251 15.069 89.9506 15.069C89.3264 15.069 89.0143 15.2546 89.0143 15.5637C89.0143 15.8729 89.1391 15.9347 89.4512 16.0584C89.7633 16.1821 90.3251 16.3057 91.1366 16.3676C92.3851 16.5531 93.4463 16.8004 94.1953 17.1096C94.9444 17.4188 95.5062 17.8516 95.8807 18.4081C96.2553 18.9646 96.3801 19.6448 96.3801 20.4486C96.3801 21.2525 96.1304 22.1182 95.5686 22.7984C95.0068 23.4785 94.2577 23.9732 93.3214 24.3442C92.3851 24.7152 91.2615 24.9007 90.0754 24.9007C88.8894 24.9007 87.5786 24.7152 86.6422 24.3442L86.7671 24.2824Z" fill="#107CBF"/>
<path d="M101.187 24.4679C101.062 24.3442 101.062 24.2205 101.062 24.0969V11.9155C101.062 11.7918 101.062 11.6682 101.187 11.5445C101.311 11.4208 101.374 11.4208 101.561 11.4208H107.304C109.052 11.4208 110.488 11.7918 111.486 12.5957C112.485 13.3995 113.047 14.5125 113.047 16.0584C113.047 17.6043 112.547 18.6554 111.549 19.3975C110.55 20.1395 109.114 20.5105 107.366 20.5105H106.056V24.0969C106.056 24.2205 106.056 24.3442 105.931 24.4679C105.806 24.5915 105.681 24.5915 105.556 24.5915H101.624C101.499 24.5915 101.374 24.5915 101.249 24.4679H101.187ZM107.242 17.0477C107.491 17.0477 107.679 16.9859 107.866 16.8004C108.053 16.6149 108.115 16.3676 108.115 16.0584C108.115 15.7492 108.053 15.5019 107.928 15.3164C107.803 15.1309 107.554 15.0072 107.242 15.0072H105.931V17.1096H107.242V17.0477Z" fill="#107CBF"/>
<path d="M114.607 24.4679C114.483 24.3442 114.483 24.2205 114.483 24.0969V11.9155C114.483 11.7918 114.483 11.6682 114.607 11.5445C114.732 11.4208 114.857 11.4208 114.982 11.4208H124.72C124.845 11.4208 124.97 11.4208 125.094 11.5445C125.219 11.6682 125.219 11.7918 125.219 11.9155V14.5744C125.219 14.698 125.219 14.8217 125.094 14.9454C124.97 15.069 124.845 15.069 124.72 15.069H119.039V16.2439H124.345C124.47 16.2439 124.595 16.2439 124.72 16.3676C124.845 16.4912 124.845 16.6149 124.845 16.7386V19.212C124.845 19.3356 124.845 19.4593 124.72 19.583C124.595 19.7066 124.47 19.7066 124.345 19.7066H119.039V20.8815H124.907C125.032 20.8815 125.157 20.8815 125.282 21.0052C125.406 21.1288 125.406 21.2525 125.406 21.3762V24.035C125.406 24.1587 125.406 24.2824 125.282 24.406C125.157 24.5297 125.032 24.5297 124.907 24.5297H114.982C114.857 24.5297 114.732 24.5297 114.607 24.406V24.4679Z" fill="#107CBF"/>
<path d="M127.279 24.4679C127.154 24.3442 127.154 24.2205 127.154 24.0969V11.9155C127.154 11.7918 127.154 11.6682 127.279 11.5445C127.404 11.4208 127.466 11.4208 127.654 11.4208H133.272C135.082 11.4208 136.518 11.8537 137.516 12.6575C138.515 13.4614 139.077 14.5744 139.077 15.9966C139.077 17.4188 138.89 17.5424 138.515 18.1608C138.141 18.7791 137.641 19.2738 137.017 19.7066L139.389 23.9732V24.1587C139.389 24.2824 139.389 24.3442 139.264 24.4679C139.202 24.5297 139.077 24.5915 138.952 24.5915H135.082C134.832 24.5915 134.645 24.5915 134.52 24.406C134.395 24.2824 134.27 24.1587 134.27 24.035L132.647 20.4486H131.898V24.035C131.898 24.1587 131.898 24.2824 131.774 24.406C131.649 24.5297 131.524 24.5297 131.399 24.5297H127.654C127.529 24.5297 127.404 24.5297 127.279 24.406V24.4679ZM133.272 16.9859C133.584 16.9859 133.771 16.8622 133.896 16.7386C134.021 16.5531 134.146 16.3057 134.146 16.0584C134.146 15.8111 134.083 15.5637 133.958 15.3164C133.833 15.069 133.584 15.0072 133.334 15.0072H131.961V16.9859H133.334H133.272Z" fill="#107CBF"/>
<path d="M143.01 24.2824C142.073 23.9114 141.387 23.4167 140.887 22.7984C140.388 22.18 140.138 21.4998 140.138 20.8196C140.138 20.696 140.138 20.6341 140.263 20.5105C140.325 20.4486 140.45 20.3868 140.575 20.3868H144.196C144.383 20.3868 144.508 20.3868 144.633 20.4486C144.757 20.4486 144.882 20.5723 145.007 20.696C145.382 21.0052 145.819 21.1288 146.38 21.1288C146.942 21.1288 147.129 21.1288 147.442 21.0052C147.691 20.8815 147.816 20.7578 147.816 20.6341C147.816 20.3868 147.629 20.2631 147.317 20.1395C146.942 20.0158 146.318 19.8921 145.382 19.7685C142.136 19.3356 140.45 17.9753 140.45 15.6256C140.45 13.2759 140.7 14.0179 141.199 13.3995C141.699 12.7812 142.385 12.2247 143.259 11.8537C144.133 11.4827 145.132 11.2971 146.256 11.2971C147.379 11.2971 148.503 11.4827 149.377 11.9155C150.251 12.3483 151 12.843 151.437 13.3995C151.936 14.0179 152.186 14.5744 152.186 15.1927C152.186 15.3164 152.186 15.3782 152.061 15.5019C151.998 15.5637 151.874 15.6256 151.811 15.6256H148.003C147.816 15.6256 147.691 15.6256 147.566 15.5637C147.442 15.5637 147.379 15.4401 147.192 15.3164C146.942 15.069 146.568 14.9454 146.193 14.9454C145.569 14.9454 145.257 15.1309 145.257 15.4401C145.257 15.7492 145.382 15.8111 145.694 15.9347C146.006 16.0584 146.568 16.1821 147.379 16.3057C148.628 16.4912 149.689 16.7386 150.438 17.0478C151.187 17.3569 151.749 17.7898 152.123 18.3463C152.498 18.9028 152.623 19.583 152.623 20.3868C152.623 21.1907 152.373 22.0563 151.811 22.7365C151.249 23.4167 150.5 23.9114 149.564 24.2824C148.628 24.6534 147.504 24.8389 146.318 24.8389C145.132 24.8389 143.821 24.6534 142.885 24.2824H143.01Z" fill="#107CBF"/>
<path d="M152.935 24.5297C152.872 24.4679 152.81 24.3442 152.81 24.2205V24.0969L157.055 12.101C157.055 11.9155 157.18 11.7918 157.367 11.6682C157.554 11.5445 157.679 11.4827 157.929 11.4827H162.048C162.298 11.4827 162.485 11.4827 162.61 11.6682C162.735 11.7918 162.86 11.9155 162.922 12.101L167.167 24.0969V24.2205C167.167 24.3442 167.167 24.406 167.042 24.5297C166.98 24.5915 166.855 24.6534 166.73 24.6534H163.234C162.86 24.6534 162.61 24.5297 162.485 24.1587L162.048 22.922H157.929L157.492 24.1587C157.367 24.4679 157.117 24.6534 156.743 24.6534H153.247C153.122 24.6534 153.06 24.6534 152.935 24.5297ZM161.112 19.2738L160.051 15.7492L158.99 19.2738H161.112Z" fill="#107CBF"/>
<path d="M168.415 24.4679C168.291 24.3442 168.291 24.2205 168.291 24.0969V11.9155C168.291 11.7918 168.291 11.6682 168.415 11.5445C168.54 11.4208 168.603 11.4208 168.79 11.4208H171.786C172.161 11.4208 172.411 11.5445 172.535 11.8537L175.781 17.0477V11.9155C175.781 11.7918 175.781 11.6682 175.906 11.5445C176.031 11.4208 176.093 11.4208 176.281 11.4208H179.714C179.839 11.4208 179.964 11.4208 180.088 11.5445C180.213 11.6682 180.213 11.7918 180.213 11.9155V24.0969C180.213 24.2205 180.213 24.3442 180.088 24.4679C179.964 24.5915 179.839 24.5915 179.714 24.5915H176.718C176.53 24.5915 176.343 24.5915 176.218 24.4679C176.093 24.3442 176.031 24.2824 175.906 24.1587L172.66 19.3356V24.035C172.66 24.1587 172.66 24.2824 172.535 24.406C172.411 24.5297 172.286 24.5297 172.161 24.5297H168.728C168.603 24.5297 168.478 24.5297 168.353 24.406L168.415 24.4679Z" fill="#107CBF"/>
<path d="M182.461 24.4679C182.336 24.3442 182.336 24.2205 182.336 24.0969V11.9155C182.336 11.7918 182.336 11.6682 182.461 11.5445C182.585 11.4208 182.71 11.4208 182.835 11.4208H188.328C189.514 11.4208 190.575 11.6063 191.512 12.0392C192.448 12.472 193.197 13.0285 193.759 13.8324C194.321 14.6362 194.633 15.5637 194.633 16.6149V19.3975C194.57 21.1288 193.946 22.4273 192.823 23.293C191.699 24.1587 190.201 24.5915 188.328 24.5915H182.773C182.648 24.5915 182.523 24.5915 182.398 24.4679H182.461ZM188.266 20.9433C188.703 20.9433 189.077 20.8196 189.327 20.5723C189.577 20.325 189.764 19.954 189.764 19.4593V16.6767C189.764 16.1821 189.577 15.8111 189.265 15.5637C188.952 15.3164 188.578 15.1927 188.141 15.1927H187.017V21.0052H188.266V20.9433Z" fill="#107CBF"/>
<path d="M5.74282 23.7259C5.49313 25.5191 5.93008 27.2504 6.92884 28.6108C7.05369 28.7345 7.11611 28.92 7.24095 29.0436C8.30213 30.3421 9.86269 31.2697 11.6729 31.517C13.4832 31.7643 15.231 31.3315 16.0425 30.775L7.67791 19.7685C6.92884 20.3868 5.99251 21.9327 5.74282 23.7259Z" fill="#FF4500"/>
<path d="M22.9714 26.2611L14.4819 15.1309C13.9825 15.2546 13.4832 15.3164 12.9838 15.2546C11.0487 15.0072 9.73781 13.214 9.9875 11.2971C10.2372 9.38028 12.0474 8.08176 13.9825 8.3291C15.9176 8.57644 17.2285 10.3696 16.9788 12.2865C16.854 13.0285 16.5419 13.7087 15.9801 14.2652L18.5394 17.6043C19.6005 16.7386 20.5993 15.069 20.849 13.0903C21.0987 11.1116 20.5993 9.25661 19.5381 7.71075C19.4133 7.52525 19.2884 7.40158 19.1636 7.21608C17.9776 5.79389 16.2922 4.80454 14.3571 4.5572C12.422 4.30986 10.4869 4.80454 8.98875 5.85572C8.80148 5.97939 8.67664 6.10306 8.48937 6.22673C7.05365 7.40158 6.0549 9.07111 5.80521 10.988C5.55552 12.9667 6.0549 14.8217 7.05365 16.3057C7.11608 16.3676 14.4819 26.1374 17.6655 30.2803C18.7891 31.7643 20.9114 32.0735 22.3471 30.9605C23.8453 29.8475 24.095 27.7451 22.9714 26.3229V26.2611Z" fill="#FF4500"/>
<path d="M13.2336 10.1841C12.5469 10.1841 11.9851 10.7406 11.8603 11.4208C11.7354 12.2247 12.2972 12.9667 13.1087 13.0903C13.9202 13.214 14.6693 12.6575 14.7941 11.8537C14.7941 11.6063 14.7941 11.2971 14.6693 11.1116C14.482 11.1735 14.2947 11.2353 14.045 11.1735C13.5457 11.1116 13.1711 10.6788 13.1711 10.1841H13.2336Z" fill="#FF4500"/>
<path d="M23.5332 24.1587C24.8441 22.922 25.0937 20.8197 23.9077 19.3356C22.7841 17.8516 20.7242 17.4806 19.1012 18.4081L23.5332 24.1587Z" fill="#FF4500"/>
<path d="M156.118 29.0436H155.681C155.681 28.6726 155.307 28.4253 154.745 28.4253C154.183 28.4253 153.934 28.6726 153.934 28.92C153.934 29.1673 154.246 29.4146 154.995 29.6001C155.806 29.7856 156.181 30.0948 156.181 30.5895C156.181 31.0842 155.556 31.5788 154.807 31.5788C154.058 31.5788 153.434 31.146 153.372 30.4658H153.809C153.809 30.8987 154.246 31.146 154.807 31.146C155.369 31.146 155.681 30.8987 155.681 30.5895C155.681 30.2803 155.369 30.033 154.62 29.9093C153.871 29.7238 153.434 29.4765 153.434 28.92C153.434 28.3635 153.996 27.9924 154.745 27.9924C155.494 27.9924 156.056 28.4253 156.118 28.9818V29.0436Z" fill="#107CBF"/>
<path d="M158.678 29.8475C158.678 28.7963 159.427 28.0543 160.488 28.0543C161.549 28.0543 162.298 28.7963 162.298 29.8475C162.298 30.8987 161.549 31.6407 160.488 31.6407C159.427 31.6407 158.678 30.8987 158.678 29.8475ZM161.799 29.8475C161.799 29.0436 161.237 28.4871 160.425 28.4871C159.614 28.4871 159.052 29.0436 159.052 29.8475C159.052 30.6513 159.614 31.2078 160.425 31.2078C161.237 31.2078 161.799 30.6513 161.799 29.8475Z" fill="#107CBF"/>
<path d="M165.482 31.146H167.354V31.517H165.045V28.1161H165.482V31.146Z" fill="#107CBF"/>
<path d="M170.226 28.1161V30.033C170.226 30.7132 170.6 31.146 171.287 31.146C171.974 31.146 172.348 30.7132 172.348 30.033V28.1161H172.785V30.033C172.785 30.9605 172.223 31.5788 171.287 31.5788C170.351 31.5788 169.789 30.9605 169.789 30.033V28.1161H170.226Z" fill="#107CBF"/>
<path d="M177.092 28.549V31.517H176.655V28.549H175.407V28.1779H178.341V28.549H177.092Z" fill="#107CBF"/>
<path d="M181.399 31.517H180.962V28.1161H181.399V31.517Z" fill="#107CBF"/>
<path d="M184.146 29.8475C184.146 28.7963 184.895 28.0543 185.956 28.0543C187.017 28.0543 187.766 28.7963 187.766 29.8475C187.766 30.8987 187.017 31.6407 185.956 31.6407C184.895 31.6407 184.146 30.8987 184.146 29.8475ZM187.329 29.8475C187.329 29.0436 186.768 28.4871 185.956 28.4871C185.145 28.4871 184.583 29.0436 184.583 29.8475C184.583 30.6513 185.145 31.2078 185.956 31.2078C186.768 31.2078 187.329 30.6513 187.329 29.8475Z" fill="#107CBF"/>
<path d="M190.888 28.1161L192.947 30.775V28.1161H193.384V31.517H192.947L190.888 28.8581V31.517H190.451V28.1161H190.888Z" fill="#107CBF"/>
</svg>
